<?xml version="1.0" standalone="no"?>
<!DOCTYPE svg PUBLIC "-//W3C//DTD SVG 20010904//EN"
 "http://www.w3.org/TR/2001/REC-SVG-20010904/DTD/svg10.dtd">
<svg version="1.0" xmlns="http://www.w3.org/2000/svg"
 width="600.000000pt" height="600.000000pt" viewBox="0 0 600.000000 600.000000"
 preserveAspectRatio="xMidYMid meet">
<metadata>
Created by potrace 1.10, written by Peter Selinger 2001-2011
</metadata>
<g transform="translate(0.000000,600.000000) scale(0.100000,-0.100000)"
fill="#000000" stroke="none">
<path d="M1450 5425 c-173 -25 -291 -71 -450 -176 -97 -63 -264 -234 -293
-299 -4 -8 -16 -28 -27 -45 -11 -16 -23 -37 -26 -45 -4 -8 -18 -39 -31 -69
-41 -89 -60 -167 -83 -341 -10 -73 -5 -141 19 -285 40 -239 201 -495 406 -646
33 -24 69 -49 80 -56 43 -26 162 -83 174 -83 7 0 25 -6 39 -14 108 -56 452
-73 600 -30 119 34 203 69 290 122 77 46 100 49 117 17 6 -11 22 -38 36 -60
40 -61 43 -80 21 -128 -58 -125 -79 -262 -62 -388 6 -46 20 -110 31 -142 10
-31 19 -63 19 -70 0 -25 -85 -177 -103 -183 -10 -3 -30 2 -45 12 -59 40 -171
88 -277 120 -178 53 -467 42 -640 -24 -213 -81 -370 -199 -501 -377 -134 -182
-206 -400 -206 -625 0 -117 37 -321 70 -386 5 -11 24 -50 43 -89 98 -203 276
-380 486 -485 34 -16 68 -30 76 -30 7 0 22 -7 33 -15 10 -8 29 -15 40 -15 12
0 37 -6 55 -14 19 -7 87 -19 152 -25 162 -17 331 3 472 56 42 16 166 76 200
96 109 67 251 203 318 305 50 77 117 207 117 227 0 8 6 29 14 47 35 84 49 177
48 341 0 97 -5 174 -12 192 -6 17 -15 48 -20 70 -15 75 -78 220 -125 289 -31
46 -32 79 -2 95 12 6 36 20 52 31 61 40 77 43 125 26 206 -76 402 -75 580 2
45 19 47 19 80 1 158 -82 166 -91 128 -141 -30 -40 -118 -220 -118 -243 0 -9
-5 -25 -11 -36 -22 -42 -51 -261 -45 -339 9 -96 23 -182 42 -241 8 -26 14 -52
14 -58 0 -6 13 -39 29 -73 16 -35 31 -70 35 -78 3 -8 15 -28 26 -45 11 -16 23
-37 27 -45 30 -66 189 -230 289 -297 92 -62 258 -143 293 -143 10 0 34 -6 52
-14 19 -7 86 -19 150 -26 233 -25 450 25 674 153 81 47 291 247 316 302 5 11
18 34 29 50 46 71 104 205 120 280 5 22 14 56 20 75 13 45 13 345 -1 390 -5
19 -14 55 -19 80 -13 68 -67 200 -113 275 -41 66 -135 181 -194 235 -137 126
-272 199 -473 256 -53 16 -100 19 -250 19 -189 0 -233 -6 -355 -52 -63 -24
-166 -74 -212 -104 l-41 -27 -20 21 c-11 12 -30 40 -42 62 -12 22 -30 54 -40
70 -20 33 -25 66 -11 93 31 63 42 129 42 252 0 130 -13 207 -47 272 -17 31
-18 64 -3 73 5 4 15 17 20 28 23 50 90 146 102 147 5 0 41 -19 80 -43 68 -41
98 -55 192 -90 96 -35 161 -48 282 -53 218 -10 359 17 538 103 90 44 98 49
175 108 346 263 497 706 384 1125 -78 288 -282 539 -549 672 -133 67 -219 92
-378 109 -178 20 -387 -15 -530 -87 -16 -8 -33 -14 -39 -14 -5 0 -30 -13 -55
-30 -24 -16 -46 -30 -49 -30 -14 0 -136 -102 -197 -164 -131 -134 -225 -307
-272 -504 -27 -111 -25 -370 4 -477 32 -120 84 -242 136 -319 33 -49 32 -62
-12 -89 -121 -75 -176 -98 -198 -79 -31 26 -202 62 -293 62 -74 0 -221 -25
-236 -40 -21 -21 -35 -16 -212 78 -35 19 -38 34 -15 73 53 89 106 212 121 284
5 22 14 54 20 70 19 48 15 369 -4 424 -9 24 -16 53 -16 65 0 11 -7 34 -15 50
-8 15 -15 34 -15 41 0 20 -68 151 -117 227 -66 100 -240 268 -313 301 -8 4
-28 16 -45 27 -16 11 -37 22 -45 26 -8 3 -23 10 -32 15 -60 32 -188 68 -298
84 -112 17 -185 17 -300 0z m380 -142 c110 -31 216 -79 305 -139 84 -56 221
-196 261 -267 34 -61 84 -164 84 -175 0 -6 6 -26 14 -44 60 -141 61 -415 1
-578 -42 -114 -102 -230 -120 -230 -8 0 -122 75 -135 89 -3 4 -41 35 -85 71
-84 68 -117 97 -247 220 l-79 75 -4 90 -5 90 55 35 c51 32 240 213 283 270 49
66 83 134 80 159 -3 24 -6 26 -47 24 -24 -1 -51 -9 -60 -18 -10 -8 -21 -15
-25 -15 -30 0 -248 -201 -315 -290 -58 -77 -65 -81 -113 -64 -120 42 -247 -21
-292 -145 -17 -49 -17 -65 0 -148 5 -28 3 -33 -25 -48 -86 -44 -351 -311 -351
-353 0 -5 -6 -15 -14 -21 -21 -17 -32 -91 -15 -102 17 -10 70 0 90 17 8 8 19
14 23 14 4 0 42 26 84 59 81 61 209 191 264 267 17 24 34 44 37 44 3 0 30 -7
60 -15 32 -8 73 -11 102 -8 l49 6 133 -134 c167 -168 327 -363 327 -396 -1
-20 -35 -44 -130 -90 -151 -73 -207 -85 -399 -90 -130 -4 -174 -1 -212 11 -26
9 -55 16 -63 16 -14 0 -31 6 -121 45 -16 7 -37 16 -45 19 -8 3 -28 15 -45 26
-16 11 -37 23 -45 27 -53 23 -172 136 -241 228 -52 68 -122 208 -145 287 -9
29 -22 100 -29 158 -41 339 93 655 365 859 84 62 108 78 130 87 8 3 23 10 32
15 58 30 198 71 278 80 93 10 285 1 350 -18z m2770 0 c316 -89 543 -291 652
-578 48 -127 53 -156 53 -330 0 -135 -4 -184 -18 -235 -58 -205 -181 -393
-332 -505 -22 -17 -42 -32 -45 -36 -3 -3 -12 -9 -20 -12 -8 -4 -28 -16 -45
-27 -16 -11 -37 -23 -45 -26 -8 -3 -28 -12 -45 -19 -91 -39 -107 -45 -123 -45
-9 0 -35 -7 -57 -15 -64 -23 -331 -20 -420 5 -96 26 -139 43 -213 82 -35 18
-72 37 -83 43 -10 5 -19 18 -19 27 0 31 207 268 395 451 81 79 93 88 119 83
30 -6 94 6 133 26 19 9 25 6 49 -23 68 -84 275 -266 334 -292 8 -4 22 -11 30
-16 78 -44 135 -55 146 -26 16 40 -41 122 -170 248 -79 76 -224 187 -245 187
-5 0 -15 8 -25 19 -14 16 -15 24 -5 63 26 97 -52 227 -155 257 -44 12 -90 11
-156 -4 -21 -5 -31 2 -68 50 -108 139 -393 343 -465 333 -31 -4 -33 -39 -7
-93 42 -87 286 -311 386 -354 30 -13 36 -36 23 -84 -6 -24 -8 -66 -5 -97 l7
-56 -108 -105 c-171 -166 -395 -349 -427 -349 -8 0 -23 12 -34 28 -29 41 -92
163 -92 178 0 7 -6 28 -14 46 -46 111 -62 342 -31 461 8 32 15 66 15 75 0 9 7
30 15 46 8 15 15 34 15 41 0 11 43 98 87 177 6 11 37 52 69 90 147 177 378
304 594 329 93 10 285 1 350 -18z m-2965 -869 c19 -20 16 -63 -6 -77 -23 -14
-67 0 -74 24 -5 14 0 28 16 45 26 28 42 30 64 8z m2773 0 c48 -34 4 -107 -49
-80 -30 15 -35 40 -15 71 19 29 33 31 64 9z m-2583 -1894 c126 -34 237 -83
282 -123 18 -16 20 -23 11 -41 -6 -11 -14 -23 -17 -26 -4 -3 -35 -43 -71 -90
-35 -46 -74 -96 -86 -110 -69 -81 -169 -192 -214 -240 -51 -53 -54 -55 -109
-56 -31 -1 -74 -5 -97 -9 -40 -7 -42 -6 -73 37 -55 77 -262 264 -321 291 -8 4
-31 17 -50 29 -40 24 -96 39 -116 31 -56 -21 55 -187 216 -323 35 -30 76 -65
90 -77 14 -13 28 -23 32 -23 16 0 98 -62 98 -75 0 -7 -7 -26 -15 -41 -50 -97
38 -255 158 -283 30 -8 69 -11 86 -7 17 3 44 9 60 12 27 6 38 -3 133 -99 150
-152 288 -250 369 -263 47 -8 62 6 52 46 -9 36 -101 155 -175 226 -63 61 -223
184 -238 184 -4 0 -7 45 -7 101 l2 100 150 148 c133 130 207 196 333 293 44
35 60 27 104 -50 54 -92 89 -184 113 -294 29 -130 12 -354 -36 -488 -28 -77
-97 -212 -119 -230 -3 -3 -27 -32 -53 -66 -72 -93 -197 -190 -317 -245 -79
-36 -112 -49 -128 -49 -9 0 -37 -8 -62 -16 -67 -24 -343 -24 -425 1 -327 96
-548 292 -657 580 -35 93 -40 115 -53 220 -35 300 59 571 269 781 55 54 129
114 142 114 4 0 15 6 23 14 24 21 132 76 148 76 8 0 27 6 41 14 61 31 147 44
302 45 124 0 169 -3 225 -19z m2765 0 c240 -68 450 -222 567 -415 34 -57 83
-159 83 -174 0 -9 4 -21 9 -27 19 -18 44 -160 49 -269 8 -216 -56 -415 -194
-595 -58 -77 -177 -191 -219 -211 -11 -5 -33 -18 -50 -28 -57 -37 -179 -91
-204 -91 -10 0 -36 -7 -57 -16 -58 -25 -345 -24 -429 1 -65 19 -123 39 -170
60 -16 7 -37 16 -45 19 -49 20 -151 97 -227 171 -115 111 -207 269 -247 420
-67 257 -28 524 108 738 17 26 35 47 39 47 22 0 260 -203 415 -354 l112 -110
0 -58 c0 -34 7 -72 16 -90 9 -17 12 -34 7 -38 -4 -4 -35 -27 -68 -52 -94 -72
-243 -231 -292 -313 -40 -67 -56 -109 -46 -124 22 -36 75 -20 173 52 97 70
285 269 303 321 6 15 14 17 45 12 95 -17 117 -18 156 -5 55 17 103 55 134 103
19 32 25 54 26 105 0 37 -3 78 -7 92 -6 23 0 30 61 74 171 125 382 389 359
450 -12 30 -39 28 -102 -5 -102 -54 -240 -182 -347 -322 -32 -43 -62 -78 -67
-78 -4 0 -31 7 -60 16 -33 9 -67 13 -95 9 l-42 -7 -87 87 c-96 96 -195 206
-247 275 -19 25 -37 47 -40 50 -21 19 -80 113 -80 128 0 22 64 60 213 125 21
10 48 17 60 18 12 0 38 7 57 14 45 18 363 14 430 -5z m-2947 -878 c22 -20 22
-37 -3 -62 -25 -25 -41 -25 -68 0 -28 26 -28 35 3 66 25 25 34 25 68 -4z
m2753 -7 c31 -48 -16 -99 -63 -67 -27 17 -30 48 -6 74 22 25 50 23 69 -7z"/>
</g>
</svg>
